<?xml version="1.0" encoding="iso-8859-1"?>
<!-- Generator: Adobe Illustrator 19.0.0, SVG Export Plug-In . SVG Version: 6.00 Build 0)  -->
<svg version="1.1" id="Capa_1" xmlns="http://www.w3.org/2000/svg" xmlns:xlink="http://www.w3.org/1999/xlink" x="0px" y="0px"
	 viewBox="0 0 512 512" style="enable-background:new 0 0 512 512;" xml:space="preserve">
<g>
	<g>
		<path d="M437.02,74.98C388.667,26.629,324.38,0,256,0S123.333,26.629,74.98,74.98C26.629,123.333,0,187.62,0,256
			s26.629,132.667,74.98,181.02C123.333,485.371,187.62,512,256,512s132.667-26.629,181.02-74.98
			C485.371,388.667,512,324.38,512,256S485.371,123.333,437.02,74.98z M166.338,59.509c-4.079,6.413-7.979,13.297-11.665,20.67
			c-5.866,11.733-11.077,24.4-15.6,37.821h-49.11C110.603,93.209,136.676,73.098,166.338,59.509z M63.541,158h64.584
			c-5.332,24.62-8.629,50.893-9.718,78H40.934C43.504,208.144,51.373,181.8,63.541,158z M63.541,354
			c-12.168-23.8-20.037-50.144-22.607-78h77.473c1.089,27.107,4.387,53.38,9.718,78H63.541z M89.964,394h49.11
			c4.522,13.421,9.733,26.088,15.6,37.821c3.687,7.373,7.586,14.257,11.665,20.67C136.676,438.902,110.603,418.791,89.964,394z
			 M236,466.892c-16.469-8.342-32.393-26.646-45.55-52.96c-3.164-6.329-6.11-12.988-8.837-19.933H236V466.892z M236,354h-66.879
			c-5.861-24.212-9.493-50.556-10.682-78H236V354z M236,236h-77.561c1.189-27.444,4.82-53.788,10.682-78H236V236z M236,118h-54.387
			c2.727-6.944,5.673-13.604,8.837-19.933c13.157-26.314,29.081-44.618,45.55-52.96V118z M448.459,158
			c12.168,23.8,20.037,50.144,22.607,78h-77.473c-1.089-27.107-4.387-53.38-9.718-78H448.459z M422.036,118h-49.11
			c-4.522-13.421-9.733-26.088-15.6-37.821c-3.687-7.373-7.586-14.257-11.665-20.67C375.324,73.098,401.397,93.209,422.036,118z
			 M276,45.108c16.469,8.342,32.393,26.646,45.55,52.96c3.164,6.329,6.11,12.988,8.837,19.933H276V45.108z M276,158h66.879
			c5.861,24.212,9.493,50.556,10.682,78H276V158z M321.55,413.933c-13.157,26.314-29.081,44.618-45.55,52.96V394h54.387
			C327.66,400.944,324.714,407.604,321.55,413.933z M276,354v-78h77.561c-1.189,27.444-4.82,53.788-10.682,78H276z M345.662,452.491
			c4.079-6.413,7.979-13.297,11.665-20.67c5.866-11.733,11.077-24.4,15.6-37.821h49.11
			C401.397,418.791,375.324,438.902,345.662,452.491z M448.459,354h-64.584c5.332-24.62,8.629-50.893,9.718-78h77.473
			C468.496,303.856,460.627,330.2,448.459,354z"/>
	</g>
</g>
<g>
</g>
<g>
</g>
<g>
</g>
<g>
</g>
<g>
</g>
<g>
</g>
<g>
</g>
<g>
</g>
<g>
</g>
<g>
</g>
<g>
</g>
<g>
</g>
<g>
</g>
<g>
</g>
<g>
</g>
</svg>
