<?xml version="1.0" encoding="iso-8859-1"?>
<!-- Generator: Adobe Illustrator 19.0.0, SVG Export Plug-In . SVG Version: 6.00 Build 0)  -->
<svg version="1.1" id="Capa_1" xmlns="http://www.w3.org/2000/svg" xmlns:xlink="http://www.w3.org/1999/xlink" x="0px" y="0px"
	 viewBox="0 0 480.034 480.034" style="enable-background:new 0 0 480.034 480.034;" xml:space="preserve">
<g>
	<g>
		<path d="M479.969,471.234l-16-152c-0.328-3.119-2.449-5.759-5.424-6.752l-66.528-22.216v-29.672
			c0.696-0.544,1.416-1.032,2.104-1.6c29.07-24.661,45.849-60.839,45.896-98.96c0-4.418-3.582-8-8-8h-24v16h15.712
			c-2.159,30.518-16.527,58.879-39.856,78.672c-27.716,23.111-67.988,23.111-95.704,0c-23.001-20.039-37.265-48.268-39.752-78.672
			h15.6v-16h-24c-4.418,0-8,3.581-8.001,7.999c0,0.035,0,0.07,0.001,0.105c0.339,38.026,17.067,74.057,45.896,98.856
			c0.68,0.568,1.408,1.056,2.104,1.6v29.672l-66.528,22.176c-2.975,0.993-5.096,3.633-5.424,6.752l-16,152
			c-0.464,4.394,2.722,8.332,7.116,8.796c0.278,0.029,0.557,0.044,0.836,0.044h272c4.418-0.004,7.996-3.59,7.992-8.008
			C480.009,471.762,479.995,471.497,479.969,471.234z M280.017,464.034h-71.12l14.536-138.04l56.584-18.864V464.034z
			 M296.017,324.978l19.144,9.6l-19.144,6.352V324.978z M296.017,464.034V357.802l28.344-9.448l-20.064,73.6
			c-0.518,1.898-0.319,3.92,0.56,5.68l18.216,36.4H296.017z M320.537,423.186l15.48-56.752l15.48,56.76l-15.48,30.952
			L320.537,423.186z M376.017,464.034h-27.056l18.208-36.424c0.879-1.76,1.078-3.782,0.56-5.68l-20.064-73.6l28.352,9.472V464.034z
			 M376.017,340.93l-19.144-6.4l19.144-9.552V340.93z M376.017,307.09l-40,20l-40-20v-36.416c25.204,12.49,54.796,12.49,80,0V307.09
			z M392.017,464.034V307.13l56.584,18.864l14.536,138.04H392.017z"/>
	</g>
</g>
<g>
	<g>
		<g>
			<path d="M161.985,268.21l-4,15.496c37.895,9.747,78.15,2.74,110.523-19.234l-8.995-13.238
				C230.945,270.623,195.424,276.805,161.985,268.21z"/>
			<path d="M268.529,264.458c-0.007,0.005-0.014,0.009-0.021,0.014l0.013,0.018L268.529,264.458z"/>
		</g>
	</g>
</g>
<g>
	<g>
		<path d="M65.812,101.291c-1.095,2.716-2.102,5.466-3.019,8.247l15.2,5c20.784-63.01,88.713-97.24,151.723-76.456
			c2.454,0.809,4.881,1.698,7.277,2.664l6-14.832C173.251-2.198,93.925,31.549,65.812,101.291z"/>
	</g>
</g>
<g>
	<g>
		<path d="M96.017,200.034c-4.418,0-8-3.582-8-8s3.582-8,8-8s8,3.582,8,8h16c-0.042-10.134-6.445-19.15-16-22.528v-17.472h-16
			v17.472c-12.473,4.393-19.023,18.066-14.629,30.539c3.38,9.596,12.455,16.009,22.629,15.989c4.418,0,8,3.582,8,8s-3.582,8-8,8
			s-8-3.582-8-8h-16c0.042,10.134,6.445,19.15,16,22.528v17.472h16v-17.472c12.473-4.393,19.023-18.066,14.629-30.539
			C115.266,206.427,106.191,200.015,96.017,200.034z"/>
	</g>
</g>
<g>
	<g>
		<path d="M400.515,40.016c-17.673-35.621-60.877-50.171-96.498-32.498c-35.621,17.673-50.171,60.877-32.498,96.498
			c6.992,14.092,18.406,25.506,32.498,32.498v31.52c0,17.673,14.327,32,32,32c17.673,0,32-14.327,32-32v-31.52
			C403.638,118.841,418.188,75.637,400.515,40.016z M352.017,168.034c0,8.837-7.163,16-16,16s-16-7.163-16-16v-8h32V168.034z
			 M357.009,123.922c-3.019,1.225-4.993,4.158-4.992,7.416v12.696h-8v-36.688l29.656-29.656l-11.312-11.312l-26.344,26.344
			l-26.344-26.344L298.361,77.69l29.656,29.656v36.688h-8v-12.696c0.001-3.258-1.973-6.191-4.992-7.416
			c-21.188-8.503-35.056-29.058-35.008-51.888c-0.016-30.928,25.043-56.013,55.971-56.029c30.928-0.016,56.013,25.043,56.029,55.971
			C392.029,94.81,378.177,115.363,357.009,123.922z"/>
	</g>
</g>
<g>
	<g>
		<rect x="448.017" y="0.034" width="16" height="16"/>
	</g>
</g>
<g>
	<g>
		<rect x="432.017" y="16.034" width="16" height="16"/>
	</g>
</g>
<g>
	<g>
		<rect x="464.017" y="16.034" width="16" height="16"/>
	</g>
</g>
<g>
	<g>
		<rect x="448.017" y="32.034" width="16" height="16"/>
	</g>
</g>
<g>
	<g>
		<rect x="432.017" y="80.034" width="16" height="16"/>
	</g>
</g>
<g>
	<g>
		<rect x="416.017" y="96.034" width="16" height="16"/>
	</g>
</g>
<g>
	<g>
		<rect x="448.017" y="96.034" width="16" height="16"/>
	</g>
</g>
<g>
	<g>
		<rect x="432.017" y="112.034" width="16" height="16"/>
	</g>
</g>
<g>
	<g>
		<path d="M96.017,128.034c-44.163,0.048-79.951,35.837-80,80c0,44.183,35.817,80,80,80s80-35.817,80-80
			C176.017,163.851,140.2,128.034,96.017,128.034z M96.017,272.034c-35.346,0-64-28.654-64-64c0.04-35.33,28.67-63.96,64-64
			c35.346,0,64,28.654,64,64C160.017,243.38,131.363,272.034,96.017,272.034z"/>
	</g>
</g>
<g>
	<g>
		<rect x="16.017" y="56.034" width="16" height="16"/>
	</g>
</g>
<g>
	<g>
		<rect x="0.017" y="72.034" width="16" height="16"/>
	</g>
</g>
<g>
	<g>
		<rect x="32.017" y="72.034" width="16" height="16"/>
	</g>
</g>
<g>
	<g>
		<rect x="16.017" y="88.034" width="16" height="16"/>
	</g>
</g>
<g>
	<g>
		<rect x="128.017" y="304.034" width="16" height="16"/>
	</g>
</g>
<g>
	<g>
		<rect x="112.017" y="320.034" width="16" height="16"/>
	</g>
</g>
<g>
	<g>
		<rect x="144.017" y="320.034" width="16" height="16"/>
	</g>
</g>
<g>
	<g>
		<rect x="128.017" y="336.034" width="16" height="16"/>
	</g>
</g>
<g>
</g>
<g>
</g>
<g>
</g>
<g>
</g>
<g>
</g>
<g>
</g>
<g>
</g>
<g>
</g>
<g>
</g>
<g>
</g>
<g>
</g>
<g>
</g>
<g>
</g>
<g>
</g>
<g>
</g>
</svg>
