<?xml version="1.0" encoding="iso-8859-1"?>
<!-- Generator: Adobe Illustrator 19.0.0, SVG Export Plug-In . SVG Version: 6.00 Build 0)  -->
<svg version="1.1" id="Capa_1" xmlns="http://www.w3.org/2000/svg" xmlns:xlink="http://www.w3.org/1999/xlink" x="0px" y="0px"
	 viewBox="0 0 512 512" style="enable-background:new 0 0 512 512;" xml:space="preserve">
<g>
	<g>
		<path d="M456,43c-5.52,0-10,4.48-10,10s4.48,10,10,10c5.52,0,10-4.48,10-10S461.52,43,456,43z"/>
	</g>
</g>
<g>
	<g>
		<path d="M396,43c-5.52,0-10,4.48-10,10s4.48,10,10,10c5.52,0,10-4.48,10-10S401.52,43,396,43z"/>
	</g>
</g>
<g>
	<g>
		<path d="M336,43c-5.52,0-10,4.48-10,10s4.48,10,10,10c5.52,0,10-4.48,10-10S341.52,43,336,43z"/>
	</g>
</g>
<g>
	<g>
		<path d="M276,309c-5.52,0-10,4.48-10,10c0,5.52,4.48,10,10,10c5.52,0,10-4.48,10-10C286,313.48,281.52,309,276,309z"/>
	</g>
</g>
<g>
	<g>
		<path d="M276,369c-5.52,0-10,4.48-10,10c0,5.52,4.48,10,10,10c5.52,0,10-4.48,10-10C286,373.48,281.52,369,276,369z"/>
	</g>
</g>
<g>
	<g>
		<path d="M276,429c-5.52,0-10,4.48-10,10c0,5.52,4.48,10,10,10c5.52,0,10-4.48,10-10C286,433.48,281.52,429,276,429z"/>
	</g>
</g>
<g>
	<g>
		<path d="M482,0H30C13.458,0,0,13.458,0,30v452c0,16.542,13.458,30,30,30h452c16.542,0,30-13.458,30-30V30
			C512,13.458,498.542,0,482,0z M492,482c0,5.514-4.486,10-10,10H30c-5.514,0-10-4.486-10-10V106h472V482z M492,86H20V30
			c0-5.514,4.486-10,10-10h452c5.514,0,10,4.486,10,10V86z"/>
	</g>
</g>
<g>
	<g>
		<path d="M436,146H76c-0.037,0-0.072,0.005-0.109,0.005c-0.228,0.002-0.453,0.017-0.678,0.034c-0.11,0.009-0.221,0.014-0.33,0.026
			c-0.207,0.023-0.411,0.058-0.615,0.094c-0.128,0.022-0.256,0.042-0.382,0.069c-0.173,0.038-0.343,0.085-0.513,0.132
			c-0.15,0.041-0.302,0.079-0.449,0.127c-0.143,0.046-0.283,0.102-0.424,0.155c-0.164,0.062-0.33,0.121-0.49,0.191
			c-0.13,0.057-0.255,0.122-0.382,0.184c-0.161,0.078-0.323,0.155-0.479,0.241c-0.134,0.074-0.263,0.158-0.393,0.239
			c-0.139,0.086-0.279,0.168-0.413,0.26c-0.148,0.102-0.29,0.214-0.432,0.324c-0.107,0.083-0.217,0.161-0.321,0.248
			c-0.158,0.132-0.307,0.274-0.457,0.416c-0.08,0.076-0.164,0.148-0.241,0.227c-0.152,0.154-0.295,0.317-0.438,0.482
			c-0.068,0.078-0.139,0.153-0.204,0.233c-0.13,0.16-0.251,0.328-0.371,0.497c-0.07,0.097-0.143,0.192-0.209,0.292
			c-0.1,0.15-0.19,0.307-0.282,0.464c-0.077,0.131-0.156,0.26-0.227,0.395c-0.069,0.132-0.131,0.269-0.195,0.404
			c-0.08,0.17-0.161,0.34-0.232,0.515c-0.047,0.115-0.086,0.234-0.129,0.352c-0.072,0.2-0.142,0.401-0.202,0.607
			c-0.011,0.038-0.027,0.074-0.037,0.112c-0.024,0.086-0.036,0.172-0.058,0.258c-0.049,0.195-0.095,0.39-0.132,0.589
			c-0.03,0.161-0.052,0.322-0.074,0.483c-0.021,0.158-0.043,0.316-0.057,0.476c-0.018,0.205-0.026,0.408-0.031,0.612
			C66.011,155.828,66,155.913,66,156v100c0,5.522,4.477,10,10,10h359.962c0.014,0,0.029,0.003,0.043,0.003
			c0.324,0,0.645-0.021,0.964-0.052c0.064-0.006,0.127-0.016,0.19-0.024c0.24-0.028,0.477-0.064,0.713-0.109
			c0.101-0.019,0.201-0.04,0.301-0.063c0.195-0.043,0.388-0.094,0.579-0.149c0.111-0.032,0.222-0.062,0.331-0.097
			c0.193-0.063,0.382-0.135,0.57-0.208c0.092-0.036,0.187-0.067,0.278-0.106c0.26-0.111,0.514-0.235,0.764-0.368
			c0.103-0.055,0.201-0.116,0.301-0.174c0.161-0.093,0.321-0.188,0.476-0.29c0.096-0.063,0.19-0.129,0.283-0.195
			c0.159-0.112,0.315-0.228,0.467-0.349c0.078-0.063,0.157-0.125,0.233-0.19c0.173-0.146,0.34-0.3,0.503-0.458
			c0.049-0.048,0.1-0.093,0.149-0.142c0.429-0.433,0.821-0.906,1.168-1.417c0.029-0.042,0.054-0.087,0.082-0.129
			c0.134-0.204,0.261-0.412,0.38-0.626c0.053-0.095,0.101-0.193,0.151-0.29c0.084-0.164,0.165-0.33,0.241-0.5
			c0.056-0.125,0.109-0.252,0.159-0.38c0.058-0.148,0.113-0.298,0.165-0.45c0.049-0.144,0.097-0.287,0.14-0.433
			c0.013-0.043,0.029-0.084,0.042-0.128c0.024-0.086,0.036-0.172,0.058-0.258c0.049-0.195,0.095-0.39,0.132-0.589
			c0.03-0.161,0.052-0.322,0.074-0.483c0.021-0.158,0.043-0.316,0.057-0.476c0.018-0.205,0.026-0.408,0.031-0.612
			c0.002-0.087,0.013-0.171,0.013-0.259V156C446,150.478,441.523,146,436,146z M86,246v-76.844L362.639,246H86z M426,242.844
			L149.361,166H426V242.844z"/>
	</g>
</g>
<g>
	<g>
		<path d="M216,309H76c-0.108,0-0.212,0.013-0.319,0.016c-0.192,0.006-0.384,0.012-0.576,0.029c-0.16,0.014-0.317,0.038-0.474,0.059
			c-0.162,0.022-0.324,0.044-0.485,0.074c-0.171,0.032-0.338,0.072-0.505,0.113c-0.147,0.036-0.294,0.071-0.44,0.113
			c-0.166,0.048-0.329,0.104-0.492,0.161c-0.146,0.051-0.291,0.102-0.435,0.159c-0.151,0.061-0.299,0.128-0.447,0.196
			c-0.151,0.069-0.301,0.139-0.449,0.216c-0.134,0.07-0.264,0.145-0.394,0.221c-0.153,0.089-0.304,0.178-0.453,0.275
			c-0.122,0.08-0.24,0.166-0.359,0.251c-0.144,0.104-0.288,0.208-0.427,0.32c-0.122,0.098-0.239,0.203-0.356,0.306
			c-0.125,0.11-0.25,0.219-0.37,0.336c-0.131,0.128-0.253,0.262-0.377,0.397c-0.078,0.085-0.161,0.161-0.236,0.249
			c-0.02,0.024-0.036,0.049-0.056,0.073c-0.127,0.151-0.245,0.311-0.363,0.469c-0.08,0.107-0.165,0.212-0.241,0.322
			c-0.106,0.155-0.2,0.317-0.297,0.478c-0.073,0.121-0.153,0.24-0.221,0.363c-0.081,0.148-0.151,0.304-0.225,0.457
			c-0.068,0.141-0.143,0.281-0.204,0.424c-0.06,0.141-0.108,0.289-0.162,0.433c-0.06,0.161-0.125,0.32-0.177,0.483
			c-0.042,0.135-0.073,0.275-0.109,0.412c-0.048,0.178-0.1,0.356-0.138,0.536c-0.027,0.128-0.042,0.259-0.064,0.389
			c-0.033,0.196-0.068,0.39-0.09,0.587c-0.013,0.125-0.016,0.252-0.025,0.378c-0.014,0.205-0.029,0.41-0.031,0.615
			c0,0.03-0.004,0.059-0.004,0.089v120c0,5.522,4.477,10,10,10h140c0.353,0,0.702-0.02,1.046-0.055
			c0.021-0.002,0.041-0.007,0.062-0.01c0.326-0.036,0.648-0.086,0.964-0.153c0.063-0.013,0.125-0.034,0.188-0.049
			c0.271-0.063,0.54-0.132,0.802-0.216c0.101-0.032,0.199-0.074,0.299-0.11c0.218-0.078,0.436-0.158,0.647-0.25
			c0.127-0.055,0.249-0.119,0.374-0.18c0.179-0.087,0.357-0.176,0.529-0.273c0.135-0.076,0.266-0.159,0.398-0.242
			c0.158-0.099,0.313-0.201,0.464-0.308c0.129-0.092,0.256-0.187,0.381-0.285c0.152-0.119,0.3-0.243,0.445-0.371
			c0.112-0.099,0.223-0.197,0.331-0.301c0.163-0.157,0.317-0.322,0.469-0.49c0.062-0.069,0.131-0.129,0.192-0.2
			c0.02-0.024,0.036-0.049,0.056-0.073c0.127-0.151,0.245-0.311,0.363-0.469c0.08-0.107,0.165-0.212,0.241-0.322
			c0.106-0.155,0.2-0.317,0.297-0.478c0.073-0.121,0.153-0.24,0.221-0.363c0.081-0.148,0.151-0.304,0.225-0.457
			c0.068-0.141,0.143-0.281,0.204-0.424c0.06-0.141,0.108-0.289,0.162-0.433c0.06-0.161,0.125-0.32,0.177-0.483
			c0.042-0.135,0.073-0.275,0.109-0.412c0.048-0.178,0.1-0.356,0.138-0.536c0.027-0.128,0.042-0.259,0.064-0.389
			c0.033-0.196,0.068-0.39,0.09-0.587c0.013-0.125,0.016-0.252,0.025-0.378c0.014-0.205,0.029-0.41,0.031-0.615
			c0-0.03,0.004-0.059,0.004-0.089V319C226,313.478,221.523,309,216,309z M86,429v-88.258L188.967,429H86z M206,417.258L103.033,329
			H206V417.258z"/>
	</g>
</g>
<g>
	<g>
		<path d="M436,309H316c-5.523,0-10,4.478-10,10c0,5.522,4.477,10,10,10h120c5.523,0,10-4.478,10-10
			C446,313.478,441.523,309,436,309z"/>
	</g>
</g>
<g>
	<g>
		<path d="M436,369H316c-5.523,0-10,4.478-10,10c0,5.522,4.477,10,10,10h120c5.523,0,10-4.478,10-10
			C446,373.478,441.523,369,436,369z"/>
	</g>
</g>
<g>
	<g>
		<path d="M436,429H316c-5.523,0-10,4.478-10,10c0,5.522,4.477,10,10,10h120c5.523,0,10-4.478,10-10
			C446,433.478,441.523,429,436,429z"/>
	</g>
</g>
<g>
</g>
<g>
</g>
<g>
</g>
<g>
</g>
<g>
</g>
<g>
</g>
<g>
</g>
<g>
</g>
<g>
</g>
<g>
</g>
<g>
</g>
<g>
</g>
<g>
</g>
<g>
</g>
<g>
</g>
</svg>
